<svg width="417" height="504" viewBox="0 0 417 504" fill="none" xmlns="http://www.w3.org/2000/svg">
<path d="M100 0H258.66L100 158.659V0Z" fill="white"/>
<path d="M417.235 0V158.659H258.575L417.235 0Z" fill="#09B9C5"/>
<path d="M100 158.659H258.66V317.318L100 158.659Z" fill="white"/>
<path d="M258.575 158.659L417.235 317.318H258.575V158.659Z" fill="white"/>
<path d="M222.942 504L111.442 504L222.942 392.5L222.942 504Z" fill="white"/>
<path d="M7.62939e-06 504L1.73771e-05 392.5L111.501 392.5L7.62939e-06 504Z" fill="white"/>
<path d="M222.942 392.5L111.442 392.5L111.442 280.999L222.942 392.5Z" fill="#09B9C5"/>
<path d="M111.501 392.5L1.73771e-05 280.999L111.501 280.999L111.501 392.5Z" fill="#09B9C5"/>
</svg>
