<svg width="177" height="44" viewBox="0 0 177 44" fill="none" xmlns="http://www.w3.org/2000/svg">
<path d="M4.25125 16.3945C7.09969 13.4176 10.7406 11.9077 15.3023 11.9077C18.3328 11.9077 20.9457 12.7001 23.1302 14.3385C27.5635 17.4975 29.4482 22.4127 29.4482 27.8097V29.5124H6.61781C7.41023 34.5453 11.7793 37.5223 17.851 37.5223C21.3098 37.5223 24.4688 36.6121 27.4457 34.8559V40.3814C24.7151 42.3197 21.0742 43.2941 16.4589 43.2941C11.8435 43.2941 7.95636 41.8378 4.74383 38.9251C1.57414 35.991 0 32.2323 0 27.5634C0 23.1301 1.4028 19.3608 4.25125 16.3945ZM22.8197 24.5222C22.7554 22.7018 22.0915 21.0634 20.6994 19.6071C19.3073 18.1507 17.4226 17.4226 14.9918 17.4226C10.1944 17.4226 7.09969 20.6458 6.68206 24.5222H22.8197Z" fill="white"/>
<path d="M37.1259 38.8501C34.0312 35.8731 32.457 32.1145 32.457 27.4992C32.457 22.9481 34.0312 19.1894 37.1259 16.266C40.2849 13.3533 44.1078 11.897 48.5946 11.897C51.9357 11.897 54.9661 12.5609 57.579 13.9637V19.607C54.9126 18.3327 52.2355 17.6688 49.5691 17.6688C46.5922 17.6688 44.1078 18.579 42.0411 20.4637C40.0386 22.3484 39.0106 24.715 39.0106 27.5634C39.0106 30.4118 40.0386 32.8427 42.0411 34.7273C44.1078 36.612 46.5922 37.5222 49.5691 37.5222C52.7281 37.5222 55.5765 36.7941 58.0716 35.2735V40.8526C55.2231 42.491 52.0642 43.2834 48.5411 43.2834C44.0971 43.2834 40.2742 41.8163 37.1259 38.8501Z" fill="white"/>
<path d="M102.887 6.55356H96.333L99.2457 0H105.799L102.887 6.55356Z" fill="white"/>
<path d="M73.6308 42.7373L60.2773 12.6895H67.4948L76.7897 34.2348L85.9454 12.6895H92.9273L79.5739 42.7373H73.6308Z" fill="#EAEAEA"/>
<path d="M102.887 12.6895H96.333V42.491H102.887V12.6895Z" fill="#EAEAEA"/>
<path d="M111.882 38.7217C109.151 35.6912 107.812 31.9861 107.812 27.5528C107.812 23.1837 109.151 19.4786 111.882 16.4481C114.612 13.4177 118.071 11.8971 122.258 11.8971C126.874 11.8971 130.397 13.5355 132.881 16.7587V0H139.434V42.491H132.881V38.4218C130.397 41.6344 126.874 43.2728 122.258 43.2728C118.071 43.2728 114.612 41.7629 111.882 38.7217ZM132.881 32.1681V22.9482C131.243 19.9712 127.902 17.6689 124.014 17.6689C121.284 17.6689 118.971 18.6434 117.15 20.5816C115.33 22.4663 114.42 24.8328 114.42 27.5635C114.42 30.3584 115.33 32.725 117.15 34.6632C118.971 36.5479 121.273 37.5116 124.014 37.5116C127.902 37.5116 131.243 35.2629 132.881 32.1681Z" fill="#EAEAEA"/>
<path d="M177 36.9975V41.9448C176.09 42.6087 174.826 42.9085 173.199 42.9085C169.879 42.9085 167.769 41.5165 166.988 38.6894C164.268 41.7627 160.648 43.2726 156.065 43.2726C152.863 43.2726 150.208 42.3624 148.098 40.6169C145.988 38.8715 144.96 36.3978 144.96 33.3138C144.96 30.1762 146.106 27.7561 148.398 26.0749C150.689 24.3294 153.527 23.4835 156.847 23.4835C160.413 23.4835 163.604 24.2652 166.324 25.7751V24.1474C166.324 19.864 163.422 17.6902 157.629 17.6902C154.245 17.6902 151.107 18.5897 148.269 20.3459V14.6169C151.225 12.9249 154.791 12.079 159.074 12.079C167.277 12.079 172.77 16.1803 172.77 23.4299V34.4703C172.77 36.3443 173.798 37.4258 175.244 37.4258C175.919 37.4151 176.454 37.2973 177 36.9975ZM166.324 30.4761C163.85 29.084 161.194 28.3665 158.421 28.3665C154.073 28.3665 151.482 30.0584 151.482 32.9497C151.482 36.0873 154.073 37.6614 157.875 37.6614C161.259 37.6614 164.45 36.0873 166.324 34.0955V30.4761Z" fill="#EAEAEA"/>
</svg>
