<svg width="127" height="40" viewBox="0 0 127 40" fill="none" xmlns="http://www.w3.org/2000/svg">
<path d="M46.5117 34.4188V5.58154H56.7552V27.0561H63.2559V34.4188H46.5117Z" fill="white"/>
<path d="M0 34.4188V5.58154H10.2435V27.0561H16.7442V34.4188H0Z" fill="white"/>
<path fill-rule="evenodd" clip-rule="evenodd" d="M25.3588 34.4188L16.7441 5.58154H25.3588L29.8181 26.9538L34.2774 5.58154H42.7907L34.3788 34.4188H25.3588Z" fill="white"/>
<path d="M114.418 29.4731L106.977 33.4882V25.4102L114.347 21.3594L114.418 29.4731Z" fill="#25E3EF"/>
<path d="M82.7952 19.3033C82.7939 19.3114 82.7924 19.3108 82.791 19.3008L82.7952 19.3033C82.8324 19.0855 82.8564 12.5941 82.8405 11.1626L106.977 25.1718V33.4882L82.7952 19.3033Z" fill="#444444"/>
<path fill-rule="evenodd" clip-rule="evenodd" d="M93.1009 34.1995L75.1411 24.186L71.78 26.0281L71.7732 26.0243L67.9072 28.1527L85.7673 38.1179C88.1053 39.4685 92.3831 41.7425 99.5352 37.7654L93.1153 34.1944C93.107 34.1984 93.0986 34.2024 93.0902 34.2065L93.1009 34.1995Z" fill="#25E3EF"/>
<path d="M99.5352 34.1812V38.1397C99.6472 38.0906 101.553 36.9275 101.889 36.7313C102.225 36.5351 103.01 35.8976 103.57 35.2601C104.018 34.7501 104.168 34.0668 104.186 33.7889V29.7676C104.186 30.2776 103.943 30.6993 103.85 30.8465C103.447 31.5134 102.841 32.0725 102.561 32.2686C102.337 32.4256 100.32 33.7889 99.5352 34.1812Z" fill="#25E3EF"/>
<path fill-rule="evenodd" clip-rule="evenodd" d="M93.5585 30.7957L93.3482 30.6775C93.3499 30.6764 93.3517 30.6753 93.3534 30.6742L75.3486 20.0092L80.0173 17.3306L80.0324 17.3395L82.6744 15.814L100.762 26.3296L100.769 26.3343C103.396 27.9015 107.277 30.2165 100.004 34.4186L93.8787 30.9757L93.871 30.9808L93.5585 30.7957Z" fill="#25E3EF"/>
<path d="M75.3486 23.8591L75.3981 19.5352L99.5347 34.0329V38.1398L75.3486 23.8591Z" fill="#444444"/>
<path fill-rule="evenodd" clip-rule="evenodd" d="M106.933 25.4998L82.3993 11.2722L89.7506 7.04917L97.8222 2.38903C100.264 2.10902 106.49 2.38981 111.862 5.75308C117.234 9.11634 116.931 11.9501 116.109 12.9466L108.043 17.6031L114.347 21.3598L106.933 25.4998ZM101.689 13.937L105.586 11.6868C106.054 11.2455 106.556 10.0811 104.825 8.95501C103.093 7.82887 100.602 7.99261 99.5735 8.21525L95.6739 10.4666L101.689 13.937Z" fill="#25E3EF"/>
</svg>
