<svg width="534" height="97" viewBox="0 0 534 97" fill="none" xmlns="http://www.w3.org/2000/svg">
<rect x="60" y="73" width="18" height="1" fill="white"/>
<path fill-rule="evenodd" clip-rule="evenodd" d="M31 67V34H32V67H32.0245C32.0083 67.1647 32 67.3315 32 67.5C32 70.5376 34.6863 73 38 73H55V74H24V73V72.924C24.3252 72.974 24.6593 73 25 73C28.3137 73 31 70.5376 31 67.5C31 67.3315 30.9917 67.1647 30.9755 67H31Z" fill="white"/>
<circle cx="33.5" cy="31.5" r="1.5" fill="white"/>
<path fill-rule="evenodd" clip-rule="evenodd" d="M29 23.5L32.5 14L38 27.5H30.5L29 23.5ZM26 28.5V30C27.3333 29.8333 30.7 29.9 31.5 31.5C31.5437 31.3907 31.5845 31.2946 31.627 31.2111C31.9574 30.2169 32.895 29.5 34 29.5C35.3807 29.5 36.5 30.6193 36.5 32C36.5 33.3807 35.3807 34.5 34 34.5C33.8623 34.5 33.7272 34.4889 33.5955 34.4674C33.5644 34.4783 33.5325 34.4892 33.5 34.5L45.5 63.5L52 60.5L39 28.5H26ZM47 64L48.5 68L53 66L51.5 62L47 64ZM55 60.5L55.5 61.5L66 34V70.5C66 71.3333 65.4 73.1 63 73.5H69.5H75.3125C74.5417 73.1667 73 72.1 73 70.5V34C73 32.5 74 29.5 78 29.5V29H67L55 60.5Z" fill="white"/>
<path fill-rule="evenodd" clip-rule="evenodd" d="M51 97C79.1665 97 102 75.2858 102 48.5C102 21.7142 79.1665 0 51 0C22.8335 0 0 21.7142 0 48.5C0 75.2858 22.8335 97 51 97ZM51 97C25.0426 97 4 75.2858 4 48.5C4 21.7142 25.0426 0 51 0C76.9574 0 98 21.7142 98 48.5C98 75.2858 76.9574 97 51 97Z" fill="white"/>
<path fill-rule="evenodd" clip-rule="evenodd" d="M143 66C150.18 66 156 59.2843 156 51C156 42.7157 150.18 36 143 36C135.82 36 130 42.7157 130 51C130 59.2843 135.82 66 143 66ZM143 64C147.418 64 151 58.1797 151 51C151 43.8203 147.418 38 143 38C138.582 38 135 43.8203 135 51C135 58.1797 138.582 64 143 64Z" fill="white"/>
<rect x="200" y="37" width="4" height="28" fill="white"/>
<path fill-rule="evenodd" clip-rule="evenodd" d="M204 62H200C200 63.1046 198.881 64 197.5 64C197.329 64 197.162 63.9862 197 63.96V65H207V63.96C206.838 63.9862 206.671 64 206.5 64C205.119 64 204 63.1046 204 62Z" fill="white"/>
<path fill-rule="evenodd" clip-rule="evenodd" d="M202 40H200C200 38.8954 198.881 38 197.5 38C197.329 38 197.162 38.0138 197 38.04V37H202V40Z" fill="white"/>
<path fill-rule="evenodd" clip-rule="evenodd" d="M208.5 51.9793C213.194 51.9793 217.5 48.6458 217.5 44.5337C217.5 40.4217 213.194 37.0882 208.5 37.0882C207.775 37.0882 207.028 37.069 206.313 37.0507C204.974 37.0164 203.75 36.9851 203 37.0882C201.56 37.2861 201.5 37.993 201.5 40.2791C201.5 40.5137 201.495 40.8802 201.489 41.342C201.453 44.0954 201.373 50.2355 202 51.9793C203.906 51.9925 204.872 51.9889 206.048 51.9846C206.724 51.9821 207.468 51.9793 208.5 51.9793ZM213.042 47.4085C213.259 46.9354 213.5 46.4087 213.5 45C213.5 43.5 213 42.5 213 42.5C213 42.5 211.484 38.5 208.5 38.5L204.67 38.5V45L204.67 50.5H208C210.984 50.5 212.22 49.2238 213 47.5C213.014 47.4696 213.028 47.4391 213.042 47.4085Z" fill="white"/>
<path d="M212 58C212 55 209.5 52.6667 208 51H211C216 52.5 216.5 57.5 217 61.5C217.305 63.9409 218.293 62.8037 219.5 62H221C221 66 218 66.5 216 66C214 65.5 212 61 212 58Z" fill="white"/>
<rect x="264" y="37" width="4" height="28" fill="white"/>
<path fill-rule="evenodd" clip-rule="evenodd" d="M268 62H264C264 63.1046 262.881 63.5 261.5 63.5C261.329 63.5 261.162 63.4939 261 63.4812V65H271V63.4812C270.838 63.4939 270.671 63.5 270.5 63.5C269.119 63.5 268 63.1046 268 62Z" fill="white"/>
<path fill-rule="evenodd" clip-rule="evenodd" d="M272.135 49.9847V52.0153C273.099 52.237 273.567 54.8154 273.567 56.4C273.567 56.6055 273.562 56.8061 273.549 57H275.5V45H273.549C273.562 45.1939 273.567 45.3945 273.567 45.6C273.567 47.1847 273.099 49.763 272.135 49.9847Z" fill="white"/>
<path fill-rule="evenodd" clip-rule="evenodd" d="M266 40H264C264 38.8954 262.881 38 261.5 38C261.329 38 261.162 38.0138 261 38.04V37H266V40Z" fill="white"/>
<rect x="268" y="50" width="7" height="2" fill="white"/>
<path fill-rule="evenodd" clip-rule="evenodd" d="M281 37H265V46H268V40.5C268 39.8333 268.2 38.5 269 38.5H276C277.167 38.5 279 39.5 279 43V46H281V37Z" fill="white"/>
<path fill-rule="evenodd" clip-rule="evenodd" d="M334 66C341.18 66 347 59.2843 347 51C347 42.7157 341.18 36 334 36C326.82 36 321 42.7157 321 51C321 59.2843 326.82 66 334 66ZM334 64C338.418 64 342 58.1797 342 51C342 43.8203 338.418 38 334 38C329.582 38 326 43.8203 326 51C326 58.1797 329.582 64 334 64Z" fill="white"/>
<rect x="391" y="37" width="4" height="28" fill="white"/>
<path d="M388 37H398V38.5H388V37Z" fill="white"/>
<path fill-rule="evenodd" clip-rule="evenodd" d="M409 56H407V59C407 62.6 405 63 404 63H388V65H409V56Z" fill="white"/>
<path d="M454 52.5H465V54H454V52.5Z" fill="white"/>
<path d="M447 63.5H455V65H447V63.5Z" fill="white"/>
<path d="M463 63.5H473V65H463V63.5Z" fill="white"/>
<path fill-rule="evenodd" clip-rule="evenodd" d="M472.124 64.5L460 36L447.876 64.5H455V64C452 64 452 62.5 452 62L459 44L466 62C466.396 63.9809 464.909 63.9737 463.777 63.9682C463.48 63.9667 463.208 63.9654 463 64V64.5H472.124Z" fill="white"/>
<path fill-rule="evenodd" clip-rule="evenodd" d="M519 39.5V37H526C527.5 37.3333 530 38 530.5 43C530.6 43.995 530.5 50 526.5 50H519V49.5H523C525.5 49.5 526.5 44.5 526.5 43.5C526.5 41.5 526.5 38.4999 522 38.5H522C521.812 38.5 519 38.5001 519 39.966L519 49.5V39.5Z" fill="white"/>
<rect x="515" y="37" width="4" height="28" fill="white"/>
<path fill-rule="evenodd" clip-rule="evenodd" d="M519 62H515C515 63.1046 513.881 64 512.5 64C512.329 64 512.162 63.9862 512 63.96V65H522V63.5109C521.111 63.8156 520.127 64 519.5 64C518.557 64 518.669 63.582 518.835 62.9649C518.912 62.6788 519 62.3499 519 62Z" fill="white"/>
<path fill-rule="evenodd" clip-rule="evenodd" d="M519 40H515C515 38.8954 513.881 38 512.5 38C512.329 38 512.162 38.0138 512 38.04V37H522V38.04C521.838 38.0138 521.671 38 521.5 38C520.119 38 519 38.8954 519 40Z" fill="white"/>
<rect x="519" y="49" width="8" height="1" fill="white"/>
<path fill-rule="evenodd" clip-rule="evenodd" d="M519 50H527C529.5 50 533 53.5 533 56.5C533 56.5 534 65 527 65H519V63H524C528.237 63 529 59.7857 529 57C529 56.2857 529 51 523.737 51H519V50Z" fill="white"/>
</svg>
