<svg width="431" height="70" viewBox="0 0 431 70" fill="none" xmlns="http://www.w3.org/2000/svg">
<path fill-rule="evenodd" clip-rule="evenodd" d="M25.0652 48.3505V24.5361H25.8738V48.3505H25.8936C25.8805 48.4694 25.8738 48.5897 25.8738 48.7113C25.8738 50.9021 28.0432 52.6783 30.7203 52.6804C30.7219 52.6804 30.7235 52.6804 30.7251 52.6804L44.4706 52.6804V53.4021H19.4053V52.6804V52.6255C19.6668 52.6614 19.9353 52.6802 20.2091 52.6804L20.2139 52.6804L20.2187 52.6804C22.8958 52.6783 25.0652 50.9021 25.0652 48.7113C25.0652 48.5897 25.0585 48.4694 25.0454 48.3505H25.0652Z" fill="#2D3237"/>
<circle cx="27" cy="23" r="1" fill="#2D3237"/>
<path fill-rule="evenodd" clip-rule="evenodd" d="M23.4481 16.9588L26.2781 10.1031L30.7251 19.8454H24.6609L23.4481 16.9588ZM21.0224 20.567V21.6495C22.1005 21.5292 24.8227 21.5773 25.4695 22.732C25.5048 22.6531 25.5379 22.5838 25.5722 22.5235C25.8393 21.8061 26.5974 21.2887 27.4909 21.2887C28.6073 21.2887 29.5123 22.0964 29.5123 23.0928C29.5123 24.0892 28.6073 24.8969 27.4909 24.8969C27.3795 24.8969 27.2703 24.8889 27.1639 24.8734C27.1387 24.8813 27.1129 24.8891 27.0866 24.8969L36.7893 45.8247L42.0449 43.6598L31.5337 20.567H21.0224ZM38.0021 46.1856L39.2149 49.0722L42.8534 47.6289L41.6406 44.7423L38.0021 46.1856ZM44.4706 43.6598L44.8748 44.3814L53.3647 24.5361V50.8763C53.3647 51.4777 52.8795 52.7526 50.939 53.0412H56.1946H60.8943C60.2711 52.8007 59.0246 52.0309 59.0246 50.8763V24.5361C59.0246 23.4536 59.8331 21.2887 63.0673 21.2887V20.9278H54.1732L44.4706 43.6598Z" fill="#2D3237"/>
<path fill-rule="evenodd" clip-rule="evenodd" d="M41.2363 70C64.0105 70 82.4727 54.33 82.4727 35C82.4727 15.67 64.0105 0 41.2363 0C18.4621 0 0 15.67 0 35C0 54.33 18.4621 70 41.2363 70ZM41.2363 70C20.2483 70 3.23422 54.33 3.23422 35C3.23422 15.67 20.2483 0 41.2363 0C62.2243 0 79.2384 15.67 79.2384 35C79.2384 54.33 62.2243 70 41.2363 70Z" fill="#2D3237"/>
<path fill-rule="evenodd" clip-rule="evenodd" d="M115.623 47.6289C121.429 47.6289 126.135 42.7825 126.135 36.8041C126.135 30.8258 121.429 25.9794 115.623 25.9794C109.818 25.9794 105.112 30.8258 105.112 36.8041C105.112 42.7825 109.818 47.6289 115.623 47.6289ZM115.623 46.1856C119.196 46.1856 122.092 41.9854 122.092 36.8041C122.092 31.6229 119.196 27.4227 115.623 27.4227C112.051 27.4227 109.155 31.6229 109.155 36.8041C109.155 41.9854 112.051 46.1856 115.623 46.1856Z" fill="#2D3237"/>
<rect x="161" y="27" width="4" height="20" fill="#2D3237"/>
<path fill-rule="evenodd" clip-rule="evenodd" d="M163.328 28.866L161.711 28.866C161.711 28.0689 160.806 27.4227 159.69 27.4227C159.551 27.4227 159.416 27.4326 159.285 27.4516V26.701H163.328V28.866Z" fill="#2D3237"/>
<path fill-rule="evenodd" clip-rule="evenodd" d="M168.584 37.5109C172.38 37.5109 175.861 35.1052 175.861 32.1377C175.861 29.1703 172.38 26.7647 168.584 26.7647C167.997 26.7647 167.393 26.7509 166.816 26.7376C165.733 26.7129 164.743 26.6903 164.137 26.7647C162.973 26.9075 162.924 27.4176 162.924 29.0674C162.924 29.2367 162.92 29.5012 162.915 29.8344C162.886 31.8214 162.821 36.2524 163.328 37.5109C164.87 37.5203 165.65 37.5178 166.602 37.5146C167.147 37.5128 167.75 37.5109 168.584 37.5109ZM172.256 34.2123C172.431 33.8709 172.627 33.4908 172.627 32.4742C172.627 31.3917 172.222 30.6701 172.222 30.6701C172.222 30.6701 170.997 27.7835 168.584 27.7835L165.487 27.7835V32.4742L165.487 36.4433H168.18C170.593 36.4433 171.592 35.5223 172.222 34.2783C172.233 34.2564 172.245 34.2344 172.256 34.2123Z" fill="#2D3237"/>
<path d="M171.077 42.0792C171.077 39.9024 169.154 38.2093 168 37H170.308C174.154 38.0884 174.538 41.7164 174.923 44.6187C175.158 46.3899 175.918 45.5647 176.846 44.9815H178C178 47.8839 175.692 48.2467 174.154 47.8839C172.615 47.5211 171.077 44.2559 171.077 42.0792Z" fill="#2D3237"/>
<rect x="213" y="27" width="4" height="20" fill="#2D3237"/>
<path fill-rule="evenodd" clip-rule="evenodd" d="M220.036 36.0714V37.5368C220.815 37.6968 221.194 39.5575 221.194 40.701C221.194 40.8493 221.19 40.9941 221.18 41.134H222.757V32.4742H221.18C221.19 32.6141 221.194 32.7589 221.194 32.9072C221.194 34.0508 220.815 35.9114 220.036 36.0714Z" fill="#2D3237"/>
<path fill-rule="evenodd" clip-rule="evenodd" d="M215.076 28.866L213.459 28.866C213.459 28.0689 212.554 27.4227 211.437 27.4227C211.299 27.4227 211.164 27.4326 211.033 27.4516V26.701H215.076V28.866Z" fill="#2D3237"/>
<rect x="217" y="36" width="6" height="1" fill="#2D3237"/>
<path fill-rule="evenodd" clip-rule="evenodd" d="M227.204 26.701H214.267V33.1959L216.693 33.1959V29.2268C216.693 28.7457 216.855 27.7835 217.501 27.7835H223.161C224.105 27.7835 225.587 28.5052 225.587 31.0309V33.1959L227.204 33.1959V26.701Z" fill="#2D3237"/>
<path fill-rule="evenodd" clip-rule="evenodd" d="M270.058 47.6289C275.863 47.6289 280.569 42.7825 280.569 36.8041C280.569 30.8258 275.863 25.9794 270.058 25.9794C264.252 25.9794 259.546 30.8258 259.546 36.8041C259.546 42.7825 264.252 47.6289 270.058 47.6289ZM270.058 46.1856C273.63 46.1856 276.526 41.9854 276.526 36.8041C276.526 31.6229 273.63 27.4227 270.058 27.4227C266.485 27.4227 263.589 31.6229 263.589 36.8041C263.589 41.9854 266.485 46.1856 270.058 46.1856Z" fill="#2D3237"/>
<rect x="316.145" y="26.701" width="3.23422" height="20.2062" fill="#2D3237"/>
<path d="M313.72 26.701H321.805V27.7835H313.72V26.701Z" fill="#2D3237"/>
<path fill-rule="evenodd" clip-rule="evenodd" d="M330.699 40.4124H329.082V42.5773C329.082 45.1753 327.465 45.4639 326.656 45.4639H313.72V46.9072H330.699V40.4124Z" fill="#2D3237"/>
<path d="M367 38H376V39H367V38Z" fill="#2D3237"/>
<path fill-rule="evenodd" clip-rule="evenodd" d="M381.739 46.5464L371.936 25.9794L362.132 46.5464H367.893V46.1856C365.467 46.1856 365.467 45.1031 365.467 44.7423L371.127 31.7526L376.787 44.7423C377.107 46.1718 375.905 46.1666 374.989 46.1626C374.749 46.1615 374.529 46.1606 374.361 46.1856V46.5464H381.739Z" fill="#2D3237"/>
<path fill-rule="evenodd" clip-rule="evenodd" d="M419.64 28.5052V26.701H425.3C426.513 26.9416 428.534 27.4227 428.939 31.0309C429.019 31.749 428.939 36.0825 425.704 36.0825H419.64V35.7216H422.875C424.896 35.7216 425.704 32.1134 425.704 31.3918C425.704 29.9485 425.704 27.7834 422.066 27.7835H422.066C421.914 27.7835 419.64 27.7836 419.641 28.8415L419.64 35.7216V28.5052Z" fill="#2D3237"/>
<rect x="417" y="27" width="2" height="20" fill="#2D3237"/>
<path fill-rule="evenodd" clip-rule="evenodd" d="M419.64 28.866H416.406C416.406 28.0689 415.501 27.4227 414.385 27.4227C414.246 27.4227 414.111 27.4326 413.98 27.4516V26.701H422.066V27.4516C421.935 27.4326 421.8 27.4227 421.662 27.4227C420.545 27.4227 419.64 28.0689 419.64 28.866Z" fill="#2D3237"/>
<rect x="419" y="35" width="7" height="1" fill="#2D3237"/>
<path fill-rule="evenodd" clip-rule="evenodd" d="M419.64 36.0825H426.109C428.13 36.0825 430.96 38.6082 430.96 40.7732C430.96 40.7732 431.769 46.9072 426.109 46.9072H419.64V45.4639H423.683C427.109 45.4639 427.726 43.1443 427.726 41.134C427.726 40.6186 427.726 36.8041 423.47 36.8041H419.64V36.0825Z" fill="#2D3237"/>
</svg>
