<svg width="308" height="76" viewBox="0 0 308 76" fill="none" xmlns="http://www.w3.org/2000/svg">
<path d="M7.3806 28.4625C12.3258 23.2942 18.6467 20.6729 26.5665 20.6729C31.8277 20.6729 36.3639 22.0486 40.1564 24.893C47.8531 30.3773 51.1251 38.9106 51.1251 48.2804V51.2364H11.4892C12.8649 59.9741 20.45 65.1424 30.9911 65.1424C36.996 65.1424 42.4803 63.5622 47.6486 60.5132V70.1062C42.9079 73.4711 36.587 75.1629 28.5743 75.1629C20.5616 75.1629 13.8131 72.6345 8.23579 67.5778C2.73287 62.4839 0 55.9585 0 47.8528C0 40.1562 2.43541 33.6121 7.3806 28.4625ZM39.6173 42.573C39.5057 39.4125 38.3531 36.5681 35.9363 34.0397C33.5195 31.5114 30.2475 30.2472 26.0273 30.2472C17.6986 30.2472 12.3258 35.8431 11.6007 42.573H39.6173Z" fill="#52AE32"/>
<path d="M64.4548 67.4477C59.082 62.2794 56.3491 55.754 56.3491 47.7413C56.3491 39.8401 59.082 33.3147 64.4548 28.2394C69.9391 23.1827 76.5761 20.6543 84.3657 20.6543C90.166 20.6543 95.4273 21.8069 99.9635 24.2423V34.0398C95.3343 31.8275 90.6866 30.6748 86.0574 30.6748C80.8892 30.6748 76.5761 32.255 72.988 35.5271C69.5115 38.7991 67.7268 42.9077 67.7268 47.8528C67.7268 52.798 69.5115 57.0182 72.988 60.2902C76.5761 63.5622 80.8892 65.1424 86.0574 65.1424C91.5418 65.1424 96.487 63.8782 100.819 61.2383V70.9242C95.8735 73.7686 90.3891 75.1443 84.2727 75.1443C76.5575 75.1443 69.9205 72.5974 64.4548 67.4477Z" fill="#52AE32"/>
<path d="M178.622 11.3777H167.244L172.301 0H183.679L178.622 11.3777Z" fill="#52AE32"/>
<path d="M127.831 74.1965L104.648 22.0303H117.178L133.315 59.4352L149.21 22.0303H161.332L138.149 74.1965H127.831Z" fill="#008A3C"/>
<path d="M178.622 22.0303H167.244V73.7689H178.622V22.0303Z" fill="#008A3C"/>
<path d="M194.238 67.2248C189.498 61.9636 187.174 55.5311 187.174 47.8345C187.174 40.2494 189.498 33.8169 194.238 28.5557C198.979 23.2944 204.984 20.6545 212.253 20.6545C220.266 20.6545 226.382 23.4989 230.695 29.0948V0H242.073V73.7689H230.695V66.7043C226.382 72.2816 220.266 75.126 212.253 75.126C204.984 75.126 198.979 72.5047 194.238 67.2248ZM230.695 55.8472V39.8404C227.851 34.6721 222.05 30.6751 215.302 30.6751C210.561 30.6751 206.546 32.3668 203.385 35.7318C200.225 39.0038 198.644 43.1124 198.644 47.8531C198.644 52.7053 200.225 56.8139 203.385 60.1789C206.546 63.4509 210.543 65.1241 215.302 65.1241C222.05 65.1241 227.851 61.22 230.695 55.8472Z" fill="#008A3C"/>
<path d="M307.29 64.2318V72.8208C305.71 73.9735 303.516 74.494 300.69 74.494C294.927 74.494 291.265 72.0772 289.908 67.1692C285.185 72.5048 278.902 75.1261 270.945 75.1261C265.386 75.1261 260.776 73.5459 257.113 70.5156C253.451 67.4852 251.666 63.1907 251.666 57.8365C251.666 52.3894 253.655 48.1878 257.634 45.2691C261.612 42.2387 266.539 40.7701 272.302 40.7701C278.493 40.7701 284.033 42.1272 288.755 44.7485V41.9227C288.755 34.4863 283.717 30.7124 273.659 30.7124C267.784 30.7124 262.337 32.274 257.411 35.3229V25.3768C262.542 22.4394 268.733 20.9707 276.169 20.9707C290.41 20.9707 299.947 28.091 299.947 40.6771V59.8444C299.947 63.0978 301.731 64.9755 304.241 64.9755C305.412 64.9569 306.342 64.7524 307.29 64.2318ZM288.755 52.9099C284.46 50.4931 279.85 49.2475 275.035 49.2475C267.487 49.2475 262.988 52.1849 262.988 57.2045C262.988 62.6516 267.487 65.3845 274.087 65.3845C279.961 65.3845 285.502 62.6516 288.755 59.1937V52.9099Z" fill="#008A3C"/>
</svg>
